<mxfile host="app.diagrams.net" modified="2021-08-06T16:16:39.267Z" agent="5.0 (Windows)" etag="E48sw6A-3dkQ23I1yCzv" version="14.9.5" type="github">
  <diagram id="C5RBs43oDa-KdzZeNtuy" name="Page-1">
    <mxGraphModel dx="1002" dy="712" grid="1" gridSize="10" guides="1" tooltips="1" connect="1" arrows="1" fold="1" page="1" pageScale="1" pageWidth="827" pageHeight="1169" math="0" shadow="0">
      <root>
        <mxCell id="WIyWlLk6GJQsqaUBKTNV-0" />
        <mxCell id="WIyWlLk6GJQsqaUBKTNV-1" parent="WIyWlLk6GJQsqaUBKTNV-0" />
        <mxCell id="-6F3Dv5JrqumGbmXonKh-11" value="&lt;!DOCTYPE html&gt;&lt;html lang=zh-CN&gt;&lt;head&gt;&lt;meta charset=utf-8&gt;&lt;meta http-equiv=X-UA-Compatible content=&quot;IE=edge&quot;&gt;&lt;meta name=viewport content=&quot;width=device-width,initial-scale=1&quot;&gt;&lt;meta name=renderer content=webkit&gt;&lt;link rel=&quot;shortcut icon&quot; type=image/x-icon href=./favicon.ico&gt;&lt;link rel=preload href=./source/UImg/loading-mask.gif as=image&gt;&lt;title&gt;亿图图示&lt;/title&gt;&lt;script src=https://account.edrawsoft.cn/utils/edauth.js&gt;&lt;/script&gt;&lt;style&gt;.loadingMask{&#xa;      position: fixed;&#xa;      top: 0;&#xa;      bottom: 0;&#xa;      left: 0;&#xa;      right: 0;&#xa;      z-index: 999;&#xa;      background-color: #f8fcff;&#xa;      display: flex;&#xa;      justify-content: center;&#xa;      align-items: center;&#xa;    }&#xa;    .loading-mask-box{&#xa;      height: 300px;&#xa;      display: none;&#xa;      flex-wrap: wrap;&#xa;      justify-content: center;&#xa;    }&#xa;    .loading-mask-icon {&#xa;      margin-bottom: 32px;&#xa;    }&#xa;    .loading-mask-icon svg {&#xa;      width: 150px;&#xa;      height: 150px;&#xa;    }&#xa;    .loading-mask-text {&#xa;      width: 100%;&#xa;      text-align: center;&#xa;      font-size: 18px;&#xa;      line-height: 56px;&#xa;      color: #000;&#xa;      margin-bottom: 32px;&#xa;    }&#xa;    .loading-mask-img {&#xa;      width: 89px;&#xa;      height: 50px;&#xa;    }&#xa;    .loading-mask-bar{&#xa;      width: 280px;&#xa;      height: 10px;&#xa;      background: #E4F2FF;&#xa;      box-shadow: inset 0px 1px 2px rgba(0, 0, 0, 0.25);&#xa;      border-radius: 68px;&#xa;    }&#xa;        &#xa;    .loading-mask-process{&#xa;      width: 0;&#xa;      height: 10px;&#xa;      background: linear-gradient(180deg, #ADD6FF 0%, #5CADFF 100%);&#xa;      border-radius: 30px;&#xa;    }&lt;/style&gt;&lt;script&gt;(function(w,d,s,l,i){w[l]=w[l]||[];w[l].push({&#39;gtm.start&#39;: new Date().getTime(),event:&#39;gtm.js&#39;});var f=d.getElementsByTagName(s)[0],j=d.createElement(s),dl=l!=&#39;dataLayer&#39;?&#39;&amp;l=&#39;+l:&#39;&#39;;j.async=true;j.src=&#39;https://www.googletagmanager.com/gtm.js?id=&#39;+i+dl;f.parentNode.insertBefore(j,f);})(window,document,&#39;script&#39;,&#39;dataLayer&#39;,&#39;GTM-WPNBJKV&#39;);&lt;/script&gt;&lt;script&gt;var _hmt = _hmt || [];(function() {var hm = document.createElement(&#39;script&#39;);hm.src = &#39;https://hm.baidu.com/hm.js?3915d8b6061de034e0a8e87bbcb09b32&#39;;var s = document.getElementsByTagName(&#39;script&#39;)[0];s.parentNode.insertBefore(hm, s);})();&lt;/script&gt;&lt;script src=app/js/vendor.4fe38180.js&gt;&lt;/script&gt;&lt;script async defer src=https://apis.google.com/js/api.js&gt;&lt;/script&gt;&lt;link href=/online/app/css/chunk-b1a01f34.5cd8a4d0.css rel=prefetch&gt;&lt;link href=/online/app/js/chunk-2cea6714.7b73a5b6.js rel=prefetch&gt;&lt;link href=/online/app/js/chunk-b1a01f34.4079f1c7.js rel=prefetch&gt;&lt;link href=/online/app/css/app.f0f895f0.css rel=preload as=style&gt;&lt;link href=/online/app/css/chunk-vendors.fcc23522.css rel=preload as=style&gt;&lt;link href=/online/app/js/app.b330bb25.js rel=preload as=script&gt;&lt;link href=/online/app/js/chunk-vendors.82895973.js rel=preload as=script&gt;&lt;link href=/online/app/css/chunk-vendors.fcc23522.css rel=stylesheet&gt;&lt;link href=/online/app/css/app.f0f895f0.css rel=stylesheet&gt;&lt;/head&gt;&lt;body&gt;&lt;noscript&gt;&lt;strong&gt;We&#39;re sorry but MaxOnline doesn&#39;t work properly without JavaScript enabled. Please enable it to continue.&lt;/strong&gt;&lt;/noscript&gt;&lt;div id=loadingMask class=loadingMask&gt;&lt;div class=loading-mask-box&gt;&lt;svg class=loading-mask-icon&gt;&lt;use href=&quot;&quot;&gt;&lt;/use&gt;&lt;/svg&gt;&lt;p class=loading-mask-text&gt;&lt;/p&gt;&lt;img class=loading-mask-img src=./source/UImg/loading-mask.gif alt=&quot;&quot;&gt;&lt;/div&gt;&lt;/div&gt;&lt;div id=app&gt;&lt;/div&gt;&lt;script&gt;const EDHtmlTextRenderTool = {};&#xa;    var app;&#xa;    let openTabs = JSON.parse(localStorage.getItem(&quot;openTabs&quot;)) || [];&#xa;    &#xa;    if(!openTabs.includes(window.name)){&#xa;      openTabs.push(window.name);&#xa;      localStorage.setItem(&quot;openTabs&quot;, JSON.stringify(openTabs));&#xa;    }else if(!openTabs.length){&#xa;      localStorage.setItem(&quot;openTabs&quot;, JSON.stringify(openTabs));&#xa;    }&#xa;    window.onunload = ()=&gt;{&#xa;      let openTabs = JSON.parse(localStorage.getItem(&quot;openTabs&quot;)) || [];&#xa;      let currentIdx = openTabs.indexOf(window.name);&#xa;      if(currentIdx !== -1){&#xa;        openTabs.splice(currentIdx,1);&#xa;        localStorage.setItem(&quot;openTabs&quot;,JSON.stringify(openTabs));&#xa;      }&#xa;    }&lt;/script&gt;&lt;script src=js/3rd/loadingSvg.js&gt;&lt;/script&gt;&lt;script src=js/3rd/jszip.min.js&gt;&lt;/script&gt;&lt;script src=js/3rd/pako.min.js&gt;&lt;/script&gt;&lt;script src=js/3rd/sha1.min.js&gt;&lt;/script&gt;&lt;script src=js/3rd/icons.js?664675&gt;&lt;/script&gt;&lt;script src=js/3rd/echarts.min.js&gt;&lt;/script&gt;&lt;script src=app/js/online.917f4fab.js&gt;&lt;/script&gt;&lt;script&gt;(function loading() {&#xa;        window.setLoadingMaskProcess = function (process) {&#xa;          // var bar = document.querySelector(&#39;.loading-mask-process&#39;);&#xa;          // var width = process * 280;&#xa;          // bar.style.width = width + &#39;px&#39;;&#xa;        }&#xa;        var list = [&#xa;          {&#xa;            id: 0,&#xa;            img: &#39;library&#39;,&#xa;            text_zh: &#39;按下快捷键L可快速打开符号库&#39;,&#xa;            text_en: &#39;Press &quot;L&quot; to open the symbol libraries&#39;,&#xa;            text_de: &#39;Drücken Sie &quot;L&quot;, um die Symbolbibliotheken zu öffnen&#39;,&#xa;            text_fr: &#39;Appuyez sur &quot;L&quot; pour ouvrir les bibliothèques de symboles&#39;,&#xa;            text_jp: &#39;「L」を押してシンボルライブラリを開きます&#39;,&#xa;            text_es: &#39;Presione &quot;L&quot; para abrir las bibliotecas de símbolos&#39;,&#xa;            text_it: &#39;Premi &quot;L&quot; per aprire le librerie di simboli&#39;,&#xa;            text_pt: &#39;Pressione &quot;L&quot; para abrir as bibliotecas de símbolos&#39;,&#xa;            text_kr: &#39;단축키 &quot;L&quot;을 눌러 기호 라이브러리 열기&#39;,&#xa;          },&#xa;          {&#xa;            id: 1,&#xa;            img: &#39;publish&#39;,&#xa;            text_zh: &#39;点击右上角的发布按钮可将您的作品发布至模板社区，供用户交流学习&#39;,&#xa;            text_en: &#39;Click &quot;Publish&quot; to share your diagrams to Template Community&#39;,&#xa;            text_de: &#39;Klicken Sie auf &quot;Veröffentlichen&quot;, um Ihre Diagramme für die Template Community freizugeben&#39;,&#xa;            text_fr: &#39;Cliquez sur &quot;Publier&quot; pour partager vos diagrammes avec la communauté de modèles.&#39;,&#xa;            text_jp: &#39;「公開」をクリックして、ダイアグラムをテンプレートコミュニティに共有できます&#39;,&#xa;            text_es: &#39;Haga clic en &quot;Publicar&quot; para compartir sus diagramas en la comunidad de plantillas.&#39;,&#xa;            text_it: &#39;Fai clic su &quot;Pubblica&quot; per condividere i tuoi diagrammi a Template Community&#39;,&#xa;            text_pt: &#39;Clique em &quot;Publicar&quot; para compartilhar seus diagramas a Comunidade de Modelos&#39;,&#xa;            text_kr: &#39;&quot;게시&quot; 클릭하고 템플릿 갤러리에 공유하기&#39;,&#xa;          },&#xa;          {&#xa;            id: 2,&#xa;            img: &#39;theme&#39;,&#xa;            text_zh: &#39;右侧功能区的主题栏中含有大量精美主题，切换主题让你的图形更加美观&#39;,&#xa;            text_en: &#39;Click &quot;Themes&quot; on the right toolbar to beautify your diagrams &#39;,&#xa;            text_de: &#39;Klicken Sie auf &quot;Themes&quot; in der rechten Symbolleiste, um Ihre Diagramme zu verschönern&#39;,&#xa;            text_fr: &#39;Cliquez sur &quot;Thèmes&quot; dans la barre d\&#39;outils de droite pour embellir vos diagrammes.&#39;,&#xa;            text_jp: &#39;右側のツールバーの「テーマ」をクリックして、図を美化できます&#39;,&#xa;            text_es: &#39;Haga clic en &quot;Temas&quot; en la barra de herramientas de la derecha para embellecer sus diagramas.&#39;,&#xa;            text_it: &#39;Fai clic su &quot;Temi&quot; sulla barra destra degli strumenti per abbellire i tuoi diagrammi&#39;,&#xa;            text_pt: &#39;Clique em &quot;Temas&quot; na barra de ferramentas direita para embelezar seus diagramas&#39;,&#xa;            text_kr: &#39;우측 메뉴에 &quot;테마&quot;를 클릭하여 다이어그램 꾸미기&#39;,&#xa;          },&#xa;          {&#xa;            id: 3,&#xa;            img: &#39;history&#39;,&#xa;            text_zh: &#39;右侧功能区将自动保存你的历史版本文件，再也不怕文件丢失啦！&#39;,&#xa;            text_en: &#39;Auto-save your historical version files on the right toolbar to recover unsaved files.&#39;,&#xa;            text_de: &#39;Speichern Sie Ihre früheren Versionsdateien automatisch in der rechten Symbolleiste, um ungespeicherte Dateien wiederherzustellen.&#39;,&#xa;            text_fr: &#39;Sauvegardez automatiquement vos fichiers de version historique dans la barre d\&#39;outils de droite pour récupérer les fichiers non sauvegardés.&#39;,&#xa;            text_jp: &#39;右側のツールバーに履歴バージョンでは自動的に保存されます。保存されていないファイルを復元できます。&#39;,&#xa;            text_es: &#39;Guarde automáticamente sus archivos de versión histórica en la barra de herramientas derecha para recuperar archivos no guardados.&#39;,&#xa;            text_it: &#39;Salva automaticamente i file della versione storica sulla barra destra degli strumenti per recuperare i file non salvati.&#39;,&#xa;            text_pt: &#39;Salve automaticamente seus arquivos de versão histórica na barra de ferramentas direita para recuperar arquivos não salvos.&#39;,&#xa;            text_kr: &#39;우측 툴바에서 자동으로 파일을 저장합니다. 파일을 저장하지 못해도 걱정 말아요~&#39;,&#xa;          },&#xa;          {&#xa;            id: 4,&#xa;            img: &#39;slider&#39;,&#xa;            text_zh: &#39;右侧功能区幻灯片功能中创建PPT，随心所欲演示你的图形&#39;,&#xa;            text_en: &#39;Click &quot;Presentation&quot; on the right toolbar to create your PPT for displaying the diagrams&#39;,&#xa;            text_de: &#39;Klicken Sie auf &quot;Präsentation&quot; in der rechten Symbolleiste, um Ihre PPT zur Darstellung der Diagramme zu erstellen&#39;,&#xa;            text_fr: &#39;Cliquez sur &quot;Présentation&quot; dans la barre d\&#39;outils de droite pour créer votre PPT afin d\&#39;afficher les diagrammes.&#39;,&#xa;            text_jp: &#39;右側のツールバーの「プレゼンテーション」をクリックして、図をPPTに作成できます。&#39;,&#xa;            text_es: &#39;Haga clic en &quot;Presentación&quot; en la barra de herramientas derecha para crear su PPT y mostrar los diagramas&#39;,&#xa;            text_it: &#39;Fai clic su &quot;Presentazione&quot; sulla barra destra degli strumenti per creare il tuo PPT per mostrare i diagrammi&#39;,&#xa;            text_pt: &#39;Clique em &quot;Apresentação&quot; na barra de ferramentas à direita para criar seu PPT para exibir os diagramas&#39;,&#xa;            text_kr: &#39;&quot;프레젠테이션&quot;을 클릭하여 슬라이드쇼를 만들어보세요!&#39;,&#xa;          },&#xa;          {&#xa;            id: 5,&#xa;            img: &#39;font&#39;,&#xa;            text_zh: &#39;使用快捷键CTRL+2可以快速添加文本&#39;,&#xa;            text_en: &#39;Press &quot;Ctrl+2&quot; to add text&#39;,&#xa;            text_de: &#39;Drücken Sie &quot;Strg+2&quot;, um Text hinzuzufügen&#39;,&#xa;            text_fr: &#39;Appuyez sur &quot;Ctrl+2&quot; pour ajouter un texte.&#39;,&#xa;            text_jp: &#39;「Ctrl + 2」を押してテキストを追加できます&#39;,&#xa;            text_es: &#39;Presione &quot;Ctrl + 2&quot; para agregar texto&#39;,&#xa;            text_it: &#39;Premi &quot;Ctrl+2&quot; per aggiungere il testo&#39;,&#xa;            text_pt: &#39;Pressione &quot;Ctrl + 2&quot; para adicionar texto&#39;,&#xa;            text_kr: &#39;&quot;Ctrl+2&quot; 단축키로 텍스트 추가하기&#39;,&#xa;          }&#xa;        ];&#xa;        var prevInfo = JSON.parse(localStorage.getItem(&#39;loadingMaskInfo&#39;));&#xa;        var time = new Date().getTime();&#xa;        var lang = localStorage.getItem(&#39;lang&#39;) || &#39;zh&#39;;&#xa;        var img = document.querySelector(&#39;.loading-mask-icon&#39;),&#xa;            box = document.querySelector(&#39;.loading-mask-box&#39;),&#xa;            text = document.querySelector(&#39;.loading-mask-text&#39;);&#xa;        if(prevInfo &amp;&amp; time - prevInfo.time &lt; 10000) {&#xa;          var item;&#xa;          for(var i = 0; i &lt; list.length; i++) {&#xa;            if(list[i].id == prevInfo.id) {&#xa;              item = list[i]&#xa;            }&#xa;          }&#xa;          box.style.display = &#39;flex&#39;;&#xa;          img.children[0].setAttribute(&#39;href&#39;, &#39;#loadingMask-&#39;+item.img);&#xa;          text.innerHTML = item[&#39;text_&#39; + lang];&#xa;        } else {&#xa;          var viewedList = localStorage.getItem(&#39;loadingMaskList&#39;) || &#39;[]&#39;;&#xa;          viewedList = JSON.parse(viewedList);&#xa;          var filterList = list.filter(v =&gt; !viewedList.includes(v.id));&#xa;          var randerIndex = parseInt(Math.random()*(filterList.length),10);&#xa;          &#xa;          box.style.display = &#39;flex&#39;;&#xa;          img.children[0].setAttribute(&#39;href&#39;, &#39;#loadingMask-&#39;+filterList[randerIndex].img);&#xa;          text.innerHTML = filterList[randerIndex][&#39;text_&#39; + lang]&#xa;          &#xa;          viewedList.push(filterList[randerIndex].id);&#xa;          if(viewedList.length == list.length) {&#xa;            localStorage.setItem(&#39;loadingMaskList&#39;, &#39;[]&#39;)&#xa;          } else {&#xa;            localStorage.setItem(&#39;loadingMaskList&#39;, JSON.stringify(viewedList))&#xa;          }&#xa;          localStorage.setItem(&#39;loadingMaskInfo&#39;, JSON.stringify({&#xa;            id: filterList[randerIndex].id,&#xa;            time: new Date().getTime()&#xa;          }))&#xa;        }&#xa;      })()&lt;/script&gt;&lt;noscript&gt;&lt;iframe src=&quot;https://www.googletagmanager.com/ns.html?id=GTM-WPNBJKV&quot; height=0 width=0 style=display:none;visibility:hidden&gt;&lt;/iframe&gt;&lt;/noscript&gt;&lt;script src=/online/app/js/chunk-vendors.82895973.js&gt;&lt;/script&gt;&lt;script src=/online/app/js/app.b330bb25.js&gt;&lt;/script&gt;&lt;/body&gt;&lt;/html&gt;" style="text;whiteSpace=wrap;html=1;" vertex="1" parent="WIyWlLk6GJQsqaUBKTNV-1">
          <mxGeometry x="40" y="40" width="30" height="40" as="geometry" />
        </mxCell>
      </root>
    </mxGraphModel>
  </diagram>
</mxfile>
